<?xml version="1.0" encoding="UTF-8"?>
<svg xmlns="http://www.w3.org/2000/svg" xmlns:xlink="http://www.w3.org/1999/xlink" width="133px" height="133px" viewBox="0 0 133 133" version="1.1">
<g id="surface1">
<path style=" stroke:none;fill-rule:nonzero;fill:rgb(100%,100%,100%);fill-opacity:1;" d="M 133 66.5 C 133 29.773438 103.226562 0 66.5 0 C 29.773438 0 0 29.773438 0 66.5 C 0 103.226562 29.773438 133 66.5 133 C 103.226562 133 133 103.226562 133 66.5 Z M 133 66.5 "/>
<path style=" stroke:none;fill-rule:nonzero;fill:rgb(62.745098%,38.039216%,41.568627%);fill-opacity:1;" d="M 74.265625 96.804688 L 77.429688 77.023438 L 56.0625 68.316406 L 52.898438 98.386719 Z M 74.265625 96.804688 "/>
<path style=" stroke:none;fill-rule:nonzero;fill:rgb(0%,74.901961%,65.098039%);fill-opacity:1;" d="M 95.738281 126.042969 C 93.902344 126.9375 92.03125 127.742188 90.136719 128.460938 C 86.339844 129.894531 82.425781 130.976562 78.40625 131.703125 C 74.480469 132.410156 70.445312 132.769531 66.414062 132.769531 C 60.96875 132.769531 55.550781 132.117188 50.316406 130.824219 C 48.261719 130.320312 46.195312 129.707031 44.160156 128.988281 C 43.949219 128.914062 43.730469 128.835938 43.519531 128.757812 C 40.996094 127.84375 38.515625 126.769531 36.128906 125.558594 C 35.808594 125.398438 35.484375 125.234375 35.164062 125.058594 C 34.808594 124.878906 34.457031 124.6875 34.097656 124.484375 C 33.644531 124.238281 33.195312 123.980469 32.742188 123.71875 C 31.234375 122.84375 29.75 121.902344 28.332031 120.917969 L 28.234375 120.855469 C 28.152344 120.796875 28.066406 120.742188 27.988281 120.679688 C 28.039062 120.40625 28.089844 120.152344 28.132812 119.929688 C 28.308594 119.054688 28.425781 118.570312 28.425781 118.570312 L 37.992188 98.808594 L 40.65625 93.300781 L 41.957031 92.765625 L 51.773438 88.730469 L 75.773438 88.730469 L 83.34375 91.863281 C 83.34375 91.863281 83.382812 92.007812 83.457031 92.28125 C 84.214844 94.988281 88.617188 110.363281 95.445312 125.40625 C 95.539062 125.613281 95.640625 125.828125 95.738281 126.042969 Z M 95.738281 126.042969 Z M 95.738281 126.042969 "/>
<path style=" stroke:none;fill-rule:nonzero;fill:rgb(62.745098%,38.039216%,41.568627%);fill-opacity:1;" d="M 90.652344 61.59375 C 90.652344 73.628906 80.898438 83.382812 68.863281 83.382812 C 56.832031 83.382812 47.078125 73.628906 47.078125 61.59375 C 47.078125 49.5625 56.832031 39.808594 68.863281 39.808594 C 80.898438 39.808594 90.652344 49.5625 90.652344 61.59375 Z M 90.652344 61.59375 Z M 90.652344 61.59375 "/>
<path style=" stroke:none;fill-rule:nonzero;fill:rgb(0%,74.901961%,65.098039%);fill-opacity:1;" d="M 41.996094 92.578125 L 41.957031 92.765625 L 35.316406 124.351562 L 35.257812 124.625 L 35.164062 125.058594 C 34.808594 124.878906 34.453125 124.683594 34.101562 124.488281 C 33.644531 124.238281 33.195312 123.980469 32.742188 123.71875 C 31.234375 122.84375 29.75 121.898438 28.328125 120.921875 L 28.234375 120.855469 C 28.152344 120.796875 28.066406 120.738281 27.988281 120.683594 C 26.902344 119.925781 25.84375 119.136719 24.8125 118.320312 C 24.804688 118.316406 24.800781 118.308594 24.792969 118.300781 C 22.949219 116.816406 21.175781 115.21875 19.476562 113.523438 C 18.382812 112.425781 17.328125 111.300781 16.324219 110.140625 L 16.476562 109.503906 L 16.488281 109.4375 L 16.679688 108.621094 C 18.371094 101.484375 24.085938 96.007812 31.289062 94.628906 L 40.859375 92.796875 Z M 41.996094 92.578125 "/>
<path style=" stroke:none;fill-rule:nonzero;fill:rgb(0%,74.901961%,65.098039%);fill-opacity:1;" d="M 109.847656 116.804688 C 107.03125 119.207031 104.007812 121.378906 100.816406 123.289062 C 100.507812 123.476562 100.1875 123.660156 99.871094 123.847656 C 98.515625 124.628906 97.132812 125.359375 95.738281 126.042969 C 93.902344 126.9375 92.03125 127.742188 90.136719 128.460938 L 89.988281 127.765625 L 82.488281 92.097656 L 83.457031 92.28125 L 93.191406 94.148438 C 100.394531 95.527344 106.113281 101.007812 107.800781 108.144531 L 109.664062 116.03125 Z M 109.847656 116.804688 "/>
<path style=" stroke:none;fill-rule:nonzero;fill:rgb(18.431373%,18.039216%,25.490196%);fill-opacity:1;" d="M 93.953125 67.417969 C 93.390625 69.527344 90.542969 78.960938 83.25 80.945312 C 81.816406 81.335938 78.398438 81.785156 79.304688 80.945312 C 79.511719 80.75 79.710938 80.5625 79.910156 80.378906 C 87.824219 72.9375 91.050781 68.386719 89.578125 58.289062 C 88.640625 51.859375 77.976562 46.019531 71.976562 45.441406 C 69.449219 45.195312 66.21875 46.050781 64.089844 48.257812 C 60.570312 51.890625 61.148438 63.042969 59.199219 69.59375 C 58.675781 71.347656 57.972656 72.773438 56.964844 73.636719 C 56.335938 74.175781 55.933594 73.492188 55.636719 72.371094 C 55.003906 69.988281 54.839844 65.621094 53.941406 66.855469 C 51.34375 70.429688 53.820312 75.167969 54.566406 76.996094 C 54.71875 77.371094 54.878906 77.730469 55.035156 78.070312 L 55.035156 78.074219 C 55.125 78.269531 55.21875 78.464844 55.3125 78.652344 L 55.3125 78.65625 C 57.804688 83.742188 60.804688 85.5625 63.445312 88.730469 C 64.484375 89.972656 65.464844 91.414062 66.339844 93.34375 C 66.941406 94.664062 67.375 95.992188 67.671875 97.296875 C 69.1875 103.828125 67.390625 109.765625 66.902344 111.378906 C 65.886719 114.742188 64.140625 120.515625 59.015625 123.777344 C 52.578125 127.871094 46.707031 124.261719 43.894531 128.152344 C 43.859375 128.195312 43.828125 128.242188 43.796875 128.289062 C 43.695312 128.445312 43.597656 128.601562 43.519531 128.757812 C 40.996094 127.84375 38.515625 126.769531 36.128906 125.558594 C 35.808594 125.398438 35.484375 125.234375 35.164062 125.058594 C 34.808594 124.878906 34.457031 124.6875 34.097656 124.484375 C 34.085938 124.214844 34.070312 123.941406 34.058594 123.664062 C 33.855469 118.9375 34.164062 113.742188 35.34375 108.5625 C 36.097656 105.25 36.84375 101.972656 37.992188 98.808594 C 38.738281 96.746094 39.652344 94.734375 40.859375 92.796875 C 41.824219 91.238281 42.96875 89.722656 44.359375 88.269531 C 47.414062 85.082031 50.128906 83.75 50.558594 80.382812 C 51.175781 75.574219 46.167969 74.128906 44.359375 66.855469 C 43.128906 61.882812 41.839844 54.71875 43.089844 49.890625 C 44.269531 45.324219 45.296875 41.367188 48.726562 37.488281 C 49.550781 36.558594 56.316406 30.09375 64.15625 29.035156 C 67.769531 28.546875 70.992188 33.171875 75.359375 34.167969 C 80.378906 35.3125 83.257812 35.964844 86.066406 38.113281 C 90.8125 41.742188 92.152344 47.164062 93.390625 52.203125 C 94.363281 56.144531 95.621094 61.242188 93.953125 67.417969 Z M 93.953125 67.417969 Z M 93.953125 67.417969 "/>
</g>
</svg>
