<?xml version="1.0" encoding="UTF-8"?>
<svg xmlns="http://www.w3.org/2000/svg" xmlns:xlink="http://www.w3.org/1999/xlink" width="133px" height="133px" viewBox="0 0 133 133" version="1.1">
<g id="surface1">
<path style=" stroke:none;fill-rule:nonzero;fill:rgb(100%,71.372549%,71.372549%);fill-opacity:1;" d="M 89.277344 65.234375 C 89.277344 77.15625 79.613281 86.820312 67.691406 86.820312 C 55.769531 86.820312 46.101562 77.15625 46.101562 65.234375 C 46.101562 53.3125 55.769531 43.644531 67.691406 43.644531 C 79.613281 43.644531 89.277344 53.3125 89.277344 65.234375 Z M 89.277344 65.234375 "/>
<path style=" stroke:none;fill-rule:nonzero;fill:rgb(100%,71.372549%,71.372549%);fill-opacity:1;" d="M 55.296875 90.011719 L 54.320312 80.15625 L 73.796875 76.511719 L 85.296875 104.511719 L 65.296875 127.511719 L 51.046875 99.511719 Z M 55.296875 90.011719 "/>
<path style=" stroke:none;fill-rule:nonzero;fill:rgb(18.431373%,18.039216%,25.490196%);fill-opacity:1;" d="M 54.007812 85.089844 L 58.265625 86.050781 C 58.265625 86.050781 54.921875 75.4375 56.054688 74.425781 C 57.191406 73.410156 59.976562 75.007812 59.976562 75.007812 L 62.902344 78.289062 L 66.464844 74.660156 C 66.464844 74.660156 70.332031 69.847656 71.847656 68.5 C 73.363281 67.148438 70.929688 62.132812 70.929688 62.132812 C 70.929688 62.132812 93.402344 56.074219 85.042969 45.171875 C 85.042969 45.171875 80.136719 36.625 78.542969 39.410156 C 76.945312 42.195312 75.042969 37.773438 75.042969 37.773438 L 69.226562 38.878906 C 69.226562 38.878906 57.753906 32.113281 46.863281 46.585938 C 35.976562 61.058594 54.007812 85.089844 54.007812 85.089844 Z M 54.007812 85.089844 "/>
<path style=" stroke:none;fill-rule:nonzero;fill:rgb(0%,74.901961%,65.098039%);fill-opacity:1;" d="M 108.289062 118.238281 C 96.492188 127.800781 81.898438 133 66.5 133 C 52.441406 133 39.046875 128.664062 27.84375 120.628906 C 27.863281 120.421875 27.886719 120.210938 27.902344 120.003906 C 28.199219 116.753906 28.464844 113.59375 28.640625 110.976562 C 29.316406 100.800781 53.050781 94.023438 53.050781 94.023438 C 53.050781 94.023438 53.15625 94.128906 53.371094 94.316406 C 54.683594 95.46875 60 99.636719 69.324219 100.800781 C 77.640625 101.84375 80.378906 96.910156 81.203125 94.546875 C 81.453125 93.828125 81.53125 93.34375 81.53125 93.34375 L 105.941406 104.871094 C 107.53125 107.148438 108.15625 112.046875 108.277344 117.554688 C 108.28125 117.78125 108.289062 118.007812 108.289062 118.238281 Z M 108.289062 118.238281 "/>
<path style=" stroke:none;fill-rule:nonzero;fill:rgb(24.705882%,23.921569%,33.72549%);fill-opacity:1;" d="M 113.523438 19.476562 C 100.960938 6.917969 84.261719 0 66.5 0 C 48.738281 0 32.039062 6.917969 19.476562 19.476562 C 6.917969 32.039062 0 48.738281 0 66.5 C 0 82.710938 5.761719 98.039062 16.324219 110.140625 C 17.328125 111.300781 18.382812 112.425781 19.476562 113.523438 C 19.734375 113.78125 19.996094 114.039062 20.257812 114.289062 C 20.957031 114.964844 21.671875 115.628906 22.394531 116.269531 C 22.835938 116.664062 23.28125 117.046875 23.730469 117.425781 C 24.082031 117.722656 24.433594 118.015625 24.792969 118.300781 C 24.800781 118.308594 24.804688 118.316406 24.8125 118.320312 C 25.804688 119.121094 26.816406 119.890625 27.84375 120.628906 C 39.046875 128.664062 52.441406 133 66.5 133 C 81.898438 133 96.492188 127.800781 108.289062 118.238281 C 109.253906 117.457031 110.195312 116.648438 111.121094 115.808594 C 111.9375 115.070312 112.738281 114.308594 113.523438 113.523438 C 113.769531 113.273438 114.015625 113.023438 114.261719 112.773438 C 114.933594 112.078125 115.589844 111.371094 116.230469 110.652344 C 127.074219 98.472656 133 82.941406 133 66.5 C 133 48.738281 126.082031 32.039062 113.523438 19.476562 Z M 116.066406 110.03125 C 115.441406 110.738281 114.800781 111.441406 114.148438 112.121094 C 113.128906 113.183594 112.074219 114.214844 110.988281 115.207031 C 110.574219 115.585938 110.15625 115.957031 109.734375 116.324219 C 109.253906 116.742188 108.769531 117.152344 108.277344 117.554688 C 104.394531 120.742188 100.140625 123.492188 95.59375 125.734375 C 93.796875 126.621094 91.953125 127.425781 90.070312 128.148438 C 82.746094 130.960938 74.800781 132.5 66.5 132.5 C 58.488281 132.5 50.808594 131.066406 43.703125 128.441406 C 40.785156 127.363281 37.964844 126.085938 35.257812 124.625 C 34.859375 124.410156 34.464844 124.191406 34.074219 123.96875 C 32.007812 122.800781 30.011719 121.523438 28.09375 120.140625 C 28.03125 120.097656 27.964844 120.050781 27.902344 120.003906 C 26.539062 119.019531 25.210938 117.984375 23.925781 116.890625 C 23.457031 116.496094 22.992188 116.09375 22.535156 115.679688 C 21.789062 115.015625 21.058594 114.335938 20.347656 113.636719 C 18.996094 112.3125 17.707031 110.933594 16.476562 109.503906 C 6.523438 97.941406 0.5 82.914062 0.5 66.5 C 0.5 30.109375 30.109375 0.5 66.5 0.5 C 102.890625 0.5 132.5 30.109375 132.5 66.5 C 132.5 83.164062 126.292969 98.40625 116.066406 110.03125 Z M 116.066406 110.03125 "/>
</g>
</svg>
