<?xml version="1.0" encoding="UTF-8"?>
<svg xmlns="http://www.w3.org/2000/svg" xmlns:xlink="http://www.w3.org/1999/xlink" width="133px" height="133px" viewBox="0 0 133 133" version="1.1">
<g id="surface1">
<path style=" stroke:none;fill-rule:nonzero;fill:rgb(100%,100%,100%);fill-opacity:1;" d="M 133 66.5 C 133 29.773438 103.226562 0 66.5 0 C 29.773438 0 0 29.773438 0 66.5 C 0 103.226562 29.773438 133 66.5 133 C 103.226562 133 133 103.226562 133 66.5 Z M 133 66.5 "/>
<path style=" stroke:none;fill-rule:nonzero;fill:rgb(62.745098%,38.039216%,41.568627%);fill-opacity:1;" d="M 89.277344 65.230469 C 89.277344 53.308594 79.613281 43.644531 67.691406 43.644531 C 55.765625 43.644531 46.101562 53.308594 46.101562 65.230469 C 46.101562 77.15625 55.765625 86.820312 67.691406 86.820312 C 79.613281 86.820312 89.277344 77.15625 89.277344 65.230469 Z M 89.277344 65.230469 "/>
<path style=" stroke:none;fill-rule:nonzero;fill:rgb(62.745098%,38.039216%,41.568627%);fill-opacity:1;" d="M 49.820312 91.652344 L 54.320312 80.152344 L 77.570312 76.652344 L 80.070312 102.109375 L 56.570312 102.609375 Z M 49.820312 91.652344 Z M 49.820312 91.652344 "/>
<path style=" stroke:none;fill-rule:nonzero;fill:rgb(18.431373%,18.039216%,25.490196%);fill-opacity:1;" d="M 89.484375 69.214844 C 89.207031 70.335938 88.640625 73.011719 87.753906 73.023438 C 87.03125 73.035156 86.339844 61.441406 87.0625 59.523438 C 87.890625 57.320312 85.714844 54.53125 84.070312 53.101562 C 81.121094 50.527344 74.570312 56.050781 67.910156 53.550781 C 67.734375 53.484375 67.765625 53.492188 65.664062 52.652344 C 59.191406 50.070312 58.851562 49.996094 58.480469 49.957031 C 55.34375 49.648438 51.515625 52.214844 49.949219 55.347656 C 48.324219 58.601562 49.683594 61.390625 48.15625 69.265625 C 47.976562 70.183594 47.695312 71.488281 47.257812 71.507812 C 46.453125 71.542969 45.667969 67.246094 45.460938 66.121094 C 44.597656 61.40625 43.765625 56.859375 45.460938 51.753906 C 45.644531 51.199219 46.785156 49.128906 49.050781 45.019531 C 52.320312 39.097656 53.964844 36.125 54.441406 35.589844 C 57.847656 31.761719 64.050781 28.265625 69.253906 29.753906 C 71.886719 30.507812 71.414062 31.71875 74.644531 32.898438 C 80.394531 34.996094 85.394531 32.429688 86.316406 34.246094 C 86.804688 35.207031 85.4375 36 85.417969 37.835938 C 85.382812 40.988281 89.371094 41.898438 91.703125 45.019531 C 92.957031 46.695312 95.101562 46.714844 89.484375 69.214844 Z M 89.484375 69.214844 Z M 89.484375 69.214844 Z M 89.484375 69.214844 "/>
<path style=" stroke:none;fill-rule:nonzero;fill:rgb(0%,74.901961%,65.098039%);fill-opacity:1;" d="M 116.230469 110.652344 C 115.359375 111.628906 114.457031 112.585938 113.523438 113.523438 C 100.960938 126.082031 84.261719 133 66.5 133 C 51.148438 133 36.589844 127.832031 24.8125 118.320312 C 24.804688 118.316406 24.800781 118.308594 24.792969 118.300781 C 23.230469 117.042969 21.71875 115.703125 20.257812 114.289062 C 20.285156 114.066406 20.316406 113.851562 20.347656 113.636719 C 20.550781 112.183594 20.78125 110.800781 21.035156 109.53125 C 23.121094 99.101562 50.589844 88.148438 51.304688 87.863281 C 51.316406 87.863281 51.320312 87.859375 51.320312 87.859375 C 51.320312 87.859375 54.855469 100.890625 70.003906 100.722656 C 80.320312 100.609375 78.320312 87.859375 78.320312 87.859375 C 78.320312 87.859375 78.445312 87.886719 78.679688 87.933594 C 81.660156 88.566406 102.351562 93.113281 110.511719 99.316406 C 113 101.203125 114.785156 105.230469 116.066406 110.03125 C 116.121094 110.234375 116.175781 110.445312 116.230469 110.652344 Z M 116.230469 110.652344 Z M 116.230469 110.652344 "/>
</g>
</svg>
