<?xml version="1.0" encoding="UTF-8"?>
<svg xmlns="http://www.w3.org/2000/svg" xmlns:xlink="http://www.w3.org/1999/xlink" width="133px" height="133px" viewBox="0 0 133 133" version="1.1">
<g id="surface1">
<path style=" stroke:none;fill-rule:nonzero;fill:rgb(100%,100%,100%);fill-opacity:1;" d="M 133 66.5 C 133 29.773438 103.226562 0 66.5 0 C 29.773438 0 0 29.773438 0 66.5 C 0 103.226562 29.773438 133 66.5 133 C 103.226562 133 133 103.226562 133 66.5 Z M 133 66.5 "/>
<path style=" stroke:none;fill-rule:nonzero;fill:rgb(100%,71.372549%,71.372549%);fill-opacity:1;" d="M 89.277344 65.234375 C 89.277344 77.15625 79.613281 86.820312 67.691406 86.820312 C 55.769531 86.820312 46.101562 77.15625 46.101562 65.234375 C 46.101562 53.3125 55.769531 43.644531 67.691406 43.644531 C 79.613281 43.644531 89.277344 53.3125 89.277344 65.234375 Z M 89.277344 65.234375 Z M 89.277344 65.234375 "/>
<path style=" stroke:none;fill-rule:nonzero;fill:rgb(100%,71.372549%,71.372549%);fill-opacity:1;" d="M 55.296875 90.011719 L 54.320312 80.15625 L 73.796875 76.511719 L 85.296875 104.511719 L 65.296875 127.511719 L 51.046875 99.511719 Z M 55.296875 90.011719 "/>
<path style=" stroke:none;fill-rule:nonzero;fill:rgb(18.431373%,18.039216%,25.490196%);fill-opacity:1;" d="M 54.007812 85.089844 L 58.265625 86.050781 C 58.265625 86.050781 54.921875 75.4375 56.054688 74.425781 C 57.191406 73.410156 59.976562 75.007812 59.976562 75.007812 L 62.902344 78.289062 L 66.464844 74.660156 C 66.464844 74.660156 70.332031 69.847656 71.847656 68.5 C 73.363281 67.148438 70.929688 62.132812 70.929688 62.132812 C 70.929688 62.132812 93.402344 56.074219 85.042969 45.171875 C 85.042969 45.171875 80.136719 36.625 78.542969 39.410156 C 76.945312 42.195312 75.042969 37.773438 75.042969 37.773438 L 69.226562 38.878906 C 69.226562 38.878906 57.753906 32.113281 46.863281 46.585938 C 35.976562 61.058594 54.007812 85.089844 54.007812 85.089844 Z M 54.007812 85.089844 Z M 54.007812 85.089844 "/>
<path style=" stroke:none;fill-rule:nonzero;fill:rgb(0%,74.901961%,65.098039%);fill-opacity:1;" d="M 108.289062 118.238281 C 96.492188 127.800781 81.898438 133 66.5 133 C 52.441406 133 39.046875 128.664062 27.84375 120.628906 C 27.863281 120.421875 27.886719 120.210938 27.902344 120.003906 C 28.199219 116.753906 28.464844 113.59375 28.640625 110.976562 C 29.316406 100.800781 53.050781 94.023438 53.050781 94.023438 C 53.050781 94.023438 53.15625 94.128906 53.371094 94.316406 C 54.683594 95.46875 60 99.636719 69.324219 100.800781 C 77.640625 101.84375 80.378906 96.910156 81.203125 94.546875 C 81.453125 93.828125 81.53125 93.34375 81.53125 93.34375 L 105.941406 104.871094 C 107.53125 107.148438 108.15625 112.046875 108.277344 117.554688 C 108.28125 117.78125 108.289062 118.007812 108.289062 118.238281 Z M 108.289062 118.238281 Z M 108.289062 118.238281 "/>
</g>
</svg>
