<?xml version="1.0" encoding="UTF-8"?>
<svg xmlns="http://www.w3.org/2000/svg" xmlns:xlink="http://www.w3.org/1999/xlink" width="133px" height="133px" viewBox="0 0 133 133" version="1.1">
<g id="surface1">
<path style=" stroke:none;fill-rule:nonzero;fill:rgb(100%,100%,100%);fill-opacity:1;" d="M 133 66.5 C 133 29.773438 103.226562 0 66.5 0 C 29.773438 0 0 29.773438 0 66.5 C 0 103.226562 29.773438 133 66.5 133 C 103.226562 133 133 103.226562 133 66.5 Z M 133 66.5 "/>
<path style=" stroke:none;fill-rule:nonzero;fill:rgb(18.431373%,18.039216%,25.490196%);fill-opacity:1;" d="M 94.796875 94.761719 L 61.546875 94.761719 L 61.546875 49.761719 L 90.296875 65.511719 Z M 94.796875 94.761719 "/>
<path style=" stroke:none;fill-rule:nonzero;fill:rgb(100%,71.372549%,71.372549%);fill-opacity:1;" d="M 89.277344 65.234375 C 89.277344 77.15625 79.613281 86.820312 67.691406 86.820312 C 55.769531 86.820312 46.101562 77.15625 46.101562 65.234375 C 46.101562 53.3125 55.769531 43.644531 67.691406 43.644531 C 79.613281 43.644531 89.277344 53.3125 89.277344 65.234375 Z M 89.277344 65.234375 Z M 89.277344 65.234375 "/>
<path style=" stroke:none;fill-rule:nonzero;fill:rgb(100%,71.372549%,71.372549%);fill-opacity:1;" d="M 55.296875 90.011719 L 54.320312 80.152344 L 73.796875 76.511719 L 85.296875 104.511719 L 65.296875 127.511719 L 51.046875 99.511719 Z M 55.296875 90.011719 "/>
<path style=" stroke:none;fill-rule:nonzero;fill:rgb(0%,74.901961%,65.098039%);fill-opacity:1;" d="M 114.261719 112.773438 C 114.015625 113.023438 113.769531 113.273438 113.523438 113.523438 C 112.738281 114.308594 111.9375 115.070312 111.121094 115.808594 C 98.871094 126.921875 83.152344 133 66.5 133 C 51.148438 133 36.589844 127.832031 24.8125 118.320312 C 24.804688 118.316406 24.800781 118.308594 24.792969 118.300781 C 24.433594 118.015625 24.082031 117.722656 23.730469 117.425781 C 23.792969 117.246094 23.859375 117.066406 23.925781 116.890625 C 27.714844 107.023438 35.195312 102.199219 39.734375 100.085938 C 41.984375 99.039062 43.511719 98.65625 43.511719 98.65625 L 48.84375 89.054688 L 52.59375 96.054688 L 55.359375 101.214844 L 66.703125 122.382812 L 76.492188 98.011719 L 79.523438 90.457031 L 80.300781 88.523438 L 84 91.398438 L 87.5 94.121094 L 94.546875 95.675781 L 100.265625 96.941406 L 108.03125 98.65625 C 111.171875 101.210938 113.078125 106.078125 114.148438 112.121094 C 114.1875 112.335938 114.226562 112.554688 114.261719 112.773438 Z M 114.261719 112.773438 Z M 114.261719 112.773438 "/>
<path style=" stroke:none;fill-rule:nonzero;fill:rgb(18.431373%,18.039216%,25.490196%);fill-opacity:1;" d="M 56.335938 40.699219 C 58.964844 36.285156 63.792969 33.253906 68.914062 32.804688 C 74.035156 32.359375 79.316406 34.507812 82.671875 38.402344 C 84.671875 40.726562 85.980469 43.566406 87.929688 45.929688 C 92.121094 51.015625 99.273438 53.992188 101.105469 60.324219 C 101.902344 63.085938 101.503906 66.035156 101.101562 68.886719 C 100.753906 71.324219 100.40625 73.765625 100.0625 76.207031 C 99.792969 78.109375 99.53125 80.109375 100.246094 81.890625 C 101.082031 83.980469 103.082031 85.351562 104.375 87.195312 C 106.574219 90.328125 106.414062 94.917969 104 97.894531 C 102.953125 99.183594 101.5625 100.15625 100.464844 101.402344 C 99.367188 102.648438 98.554688 104.355469 99.015625 105.949219 C 99.894531 109.007812 104.691406 109.742188 105.214844 112.878906 C 105.484375 114.484375 104.375 116.085938 102.925781 116.820312 C 101.472656 117.554688 99.761719 117.574219 98.148438 117.378906 C 92.007812 116.632812 86.328125 112.796875 83.335938 107.382812 C 80.347656 101.96875 80.132812 95.117188 82.769531 89.523438 C 84.9375 84.933594 88.964844 80.875 88.921875 75.796875 C 88.898438 73.027344 87.628906 70.445312 86.390625 67.972656 C 83.847656 62.910156 81.308594 57.847656 78.769531 52.789062 C 77.410156 50.074219 75.832031 47.15625 73.03125 45.988281 C 70.863281 45.089844 68.410156 45.4375 66.09375 45.808594 C 63.777344 46.175781 61.324219 46.535156 59.152344 45.648438 C 56.984375 44.765625 55.34375 42.136719 56.378906 40.03125 "/>
<path style=" stroke:none;fill-rule:nonzero;fill:rgb(18.431373%,18.039216%,25.490196%);fill-opacity:1;" d="M 60.117188 40.929688 C 55.945312 39.558594 51.269531 41.761719 48.445312 45.125 C 45.621094 48.488281 44.25 52.800781 42.945312 56.992188 C 42.199219 59.394531 41.453125 61.796875 40.703125 64.199219 C 40 66.457031 39.296875 68.714844 38.597656 70.976562 C 37.769531 73.632812 36.933594 76.457031 37.613281 79.15625 C 38.105469 81.105469 39.367188 82.878906 39.394531 84.890625 C 39.421875 86.992188 38.105469 88.835938 36.953125 90.59375 C 35.800781 92.347656 34.71875 94.4375 35.265625 96.464844 C 36.101562 99.550781 40.390625 101.246094 40.15625 104.433594 C 40.078125 105.5 39.464844 106.480469 39.472656 107.550781 C 39.488281 108.90625 40.550781 110.078125 41.796875 110.621094 C 43.042969 111.160156 44.441406 111.191406 45.800781 111.167969 C 49.960938 111.09375 54.117188 110.597656 58.179688 109.691406 C 59.746094 109.34375 61.335938 108.917969 62.636719 107.984375 C 63.9375 107.050781 64.90625 105.503906 64.738281 103.910156 C 64.476562 101.425781 61.804688 100.019531 60.460938 97.917969 C 59.136719 95.851562 59.167969 93.238281 58.597656 90.851562 C 57.8125 87.574219 55.875 84.714844 54.421875 81.675781 C 48.957031 70.246094 50.871094 55.679688 59.101562 46.046875 C 59.828125 45.195312 60.625 44.339844 60.925781 43.261719 C 61.230469 42.183594 60.839844 40.808594 59.785156 40.433594 "/>
</g>
</svg>
